<svg width="24" height="24" viewBox="0 0 24 24" fill="none" xmlns="http://www.w3.org/2000/svg">
<rect x="2" y="2" width="20" height="20" rx="1" fill="#323232"/>
<path d="M16.3295 9.0065C16.2735 8.2435 16.0635 7.5715 15.6995 6.9905C15.3425 6.4025 14.8665 5.944 14.2715 5.615C13.6765 5.279 13.001 5.111 12.245 5.111C11.027 5.111 10.1625 5.363 9.6515 5.867C9.1405 6.371 8.885 6.987 8.885 7.715C8.885 8.345 9.0495 8.849 9.3785 9.227C9.7145 9.598 10.1555 9.892 10.7015 10.109C11.2545 10.326 11.86 10.5185 12.518 10.6865C13.176 10.8475 13.834 11.0295 14.492 11.2325C15.15 11.4355 15.752 11.705 16.298 12.041C16.851 12.377 17.292 12.8285 17.621 13.3955C17.957 13.9555 18.125 14.687 18.125 15.59C18.125 16.57 17.901 17.4135 17.453 18.1205C17.012 18.8275 16.368 19.37 15.521 19.748C14.674 20.126 13.652 20.315 12.455 20.315C11.664 20.315 10.9255 20.1785 10.2395 19.9055C9.5605 19.6255 8.983 19.2755 8.507 18.8555C8.353 18.7155 8.2445 18.6525 8.1815 18.6665C8.1185 18.6805 8.045 18.7925 7.961 19.0025L7.6355 19.811C7.5795 19.951 7.5235 20.035 7.4675 20.063C7.4185 20.091 7.2925 20.105 7.0895 20.105H6.764C6.603 20.105 6.4945 20.084 6.4385 20.042C6.3895 20 6.365 19.902 6.365 19.748V14.939C6.365 14.792 6.393 14.708 6.449 14.687C6.512 14.659 6.617 14.645 6.764 14.645H7.205C7.345 14.645 7.4325 14.6765 7.4675 14.7395C7.5095 14.7955 7.534 14.883 7.541 15.002C7.604 15.667 7.8245 16.325 8.2025 16.976C8.5875 17.627 9.1195 18.1695 9.7985 18.6035C10.4775 19.0305 11.293 19.244 12.245 19.244C13.197 19.244 13.9635 19.0865 14.5445 18.7715C15.1325 18.4495 15.5595 18.047 15.8255 17.564C16.0985 17.081 16.235 16.598 16.235 16.115C16.235 15.422 16.067 14.8725 15.731 14.4665C15.402 14.0535 14.961 13.728 14.408 13.49C13.862 13.245 13.26 13.042 12.602 12.881C11.944 12.713 11.286 12.538 10.628 12.356C9.97 12.167 9.3645 11.922 8.8115 11.621C8.2655 11.313 7.8245 10.9 7.4885 10.382C7.1595 9.864 6.995 9.185 6.995 8.345C6.995 7.61 7.1245 6.973 7.3835 6.434C7.6495 5.895 8.0135 5.447 8.4755 5.09C8.9445 4.733 9.4835 4.4705 10.0925 4.3025C10.7015 4.1275 11.349 4.04 12.035 4.04C12.7 4.04 13.323 4.1485 13.904 4.3655C14.492 4.5755 14.996 4.8625 15.416 5.2265C15.535 5.3315 15.6365 5.3875 15.7205 5.3945C15.8045 5.4015 15.885 5.3105 15.962 5.1215L16.2875 4.376C16.3155 4.32 16.34 4.285 16.361 4.271C16.389 4.257 16.445 4.25 16.529 4.25H17.201C17.334 4.25 17.4145 4.2745 17.4425 4.3235C17.4775 4.3655 17.495 4.4565 17.495 4.5965V9.122C17.495 9.255 17.467 9.3355 17.411 9.3635C17.362 9.3845 17.271 9.395 17.138 9.395H16.676C16.487 9.395 16.3855 9.374 16.3715 9.332C16.3575 9.29 16.3435 9.1815 16.3295 9.0065Z" fill="white"/>
</svg>
